<svg width="220" height="191" fill="none" xmlns="http://www.w3.org/2000/svg"><g filter="url(#a)"><circle cx="110" cy="80" r="50" fill="#0400BA"/><circle cx="110" cy="80" r="48" stroke="#fff" stroke-width="4"/></g><path d="M120.189 90.189h4.232a4.232 4.232 0 0 0 4.231-4.232v-8.463a4.234 4.234 0 0 0-4.231-4.232H94.798a4.232 4.232 0 0 0-4.232 4.231v8.464a4.232 4.232 0 0 0 4.232 4.232h4.232M120.189 73.262v-8.464a4.23 4.23 0 0 0-4.232-4.232h-12.695a4.233 4.233 0 0 0-4.232 4.232v8.464" stroke="#fff" stroke-width="4" stroke-linecap="round" stroke-linejoin="round"/><path d="M115.957 81.725h-12.695a4.232 4.232 0 0 0-4.232 4.232v8.464a4.232 4.232 0 0 0 4.232 4.231h12.695a4.232 4.232 0 0 0 4.232-4.231v-8.464a4.232 4.232 0 0 0-4.232-4.232Z" stroke="#fff" stroke-width="4" stroke-linecap="round" stroke-linejoin="round"/><defs><filter id="a" x="0" y="-29" width="220" height="220" filterUnits="userSpaceOnUse" color-interpolation-filters="sRGB"><feFlood flood-opacity="0" result="BackgroundImageFix"/><feColorMatrix in="SourceAlpha" values="0 0 0 0 0 0 0 0 0 0 0 0 0 0 0 0 0 0 127 0" result="hardAlpha"/><feOffset dy="1"/><feGaussianBlur stdDeviation="30"/><feComposite in2="hardAlpha" operator="out"/><feColorMatrix values="0 0 0 0 0 0 0 0 0 0 0 0 0 0 0 0 0 0 0.15 0"/><feBlend in2="BackgroundImageFix" result="effect1_dropShadow_1_38"/><feBlend in="SourceGraphic" in2="effect1_dropShadow_1_38" result="shape"/></filter></defs></svg>