<svg width="67" height="67" fill="none" xmlns="http://www.w3.org/2000/svg"><g opacity=".5" stroke="#06F" stroke-width="3" stroke-linecap="round" stroke-linejoin="round"><path d="M41.875 50.25a8.375 8.375 0 1 0 0-16.75 8.375 8.375 0 0 0 0 16.75Z"/><path d="M36.292 48.854v12.563l5.583-4.188 5.583 4.188V48.854"/><path d="M27.917 53.042H13.958a5.583 5.583 0 0 1-5.583-5.584V19.542c0-3.071 2.512-5.584 5.583-5.584h39.084a5.583 5.583 0 0 1 5.583 5.584v27.916a5.584 5.584 0 0 1-2.792 4.83M16.75 25.125h33.5M16.75 33.5h8.375M16.75 41.875h5.583"/></g></svg>